# xmcd
#
# Track frame offsets:
#	150
#	19821
#	36097
#	52999
#	71774
#	85806
#	105563
#	117748
#	138105
#	152470
#	171314
#
# Disc length: 2533 seconds
#
# Revision: 1
# Processed by: cddbd v1.4PL0 Copyright (c) Steve Scherf et al.
# Submitted via: EasyCDDAExtractor 5.1.0
#
DISCID=8c09e30b
DTITLE=Heidi Hauge - Country Rose
DYEAR=2001
DGENRE=Country
TTITLE0=Yellow Roses
TTITLE1=Banks Of The Ohio
TTITLE2=Uten Deg
TTITLE3=Crystal chandeliers
TTITLE4=She never spoke spanish to me
TTITLE5=Smokey mountain queen
TTITLE6=Should I do it
TTITLE7=Der elvene møtes
TTITLE8=Much to young
TTITLE9=Angel with a broken wing
TTITLE10=I Don't Want Tonight To Be Over
EXTD=
EXTT0=
EXTT1=
EXTT2=
EXTT3=
EXTT4=
EXTT5=
EXTT6=
EXTT7=
EXTT8=
EXTT9=
EXTT10=
PLAYORDER=
